<?xml version="1.0" encoding="utf-8"?>
<!-- Generator: Adobe Illustrator 24.1.2, SVG Export Plug-In . SVG Version: 6.00 Build 0)  -->
<svg version="1.1" id="レイヤー_1" xmlns="http://www.w3.org/2000/svg" xmlns:xlink="http://www.w3.org/1999/xlink" x="0px"
	 y="0px" viewBox="0 0 30 30" style="enable-background:new 0 0 30 30;" xml:space="preserve">
<style type="text/css">
	.st0{fill:none;}
	.st1{fill:#4D4D4D;}
	.st2{fill:#FFFFFF;}
</style>
<path class="st0" d="M0-0.2h30v30H0V-0.2z"/>
<g>
	<path class="st1" d="M14.9,12.4c-4.4,0-4.6,2.8-4.6,2.8v8.4h9.3v-8.4C19.6,15.1,19.4,12.4,14.9,12.4z"/>
	<path class="st2" d="M11.6,10.4c0-1.9,1.5-3.4,3.4-3.4s3.4,1.5,3.4,3.4s-1.5,3.4-3.4,3.4S11.6,12.1,11.6,10.4z"/>
	<path class="st1" d="M11.6,9.5c0-1.9,1.5-3.4,3.4-3.4s3.4,1.5,3.4,3.4s-1.5,3.4-3.4,3.4C13.1,13,11.6,11.4,11.6,9.5z"/>
</g>
</svg>
