<?xml version="1.0" encoding="utf-8"?>
<!-- Generator: Adobe Illustrator 24.1.0, SVG Export Plug-In . SVG Version: 6.00 Build 0)  -->
<svg version="1.1" id="レイヤー_1" xmlns="http://www.w3.org/2000/svg" xmlns:xlink="http://www.w3.org/1999/xlink" x="0px"
	 y="0px" viewBox="0 0 370 370" style="enable-background:new 0 0 370 370;" xml:space="preserve">
<g>
	<g>
		<rect id="p" width="12.7" height="12.7"/>
	</g>
	<g>
		<rect id="p_1_" x="12.7" width="12.7" height="12.7"/>
	</g>
	<g>
		<rect id="p_2_" x="25.5" width="12.7" height="12.7"/>
	</g>
	<g>
		<rect id="p_3_" x="38.2" width="12.7" height="12.7"/>
	</g>
	<g>
		<rect id="p_4_" x="51" width="12.7" height="12.7"/>
	</g>
	<g>
		<rect id="p_5_" x="63.7" width="12.7" height="12.7"/>
	</g>
	<g>
		<rect id="p_6_" x="76.4" width="12.7" height="12.7"/>
	</g>
	<g>
		<rect id="p_7_" x="114.7" width="12.7" height="12.7"/>
	</g>
	<g>
		<rect id="p_8_" x="140.2" width="12.7" height="12.7"/>
	</g>
	<g>
		<rect id="p_9_" x="165.6" width="12.7" height="12.7"/>
	</g>
	<g>
		<rect id="p_10_" x="203.9" width="12.7" height="12.7"/>
	</g>
	<g>
		<rect id="p_11_" x="229.3" width="12.7" height="12.7"/>
	</g>
	<g>
		<rect id="p_12_" x="254.8" width="12.7" height="12.7"/>
	</g>
	<g>
		<rect id="p_13_" x="280.3" width="12.7" height="12.7"/>
	</g>
	<g>
		<rect id="p_14_" x="293.1" width="12.7" height="12.7"/>
	</g>
	<g>
		<rect id="p_15_" x="305.8" width="12.7" height="12.7"/>
	</g>
	<g>
		<rect id="p_16_" x="318.5" width="12.7" height="12.7"/>
	</g>
	<g>
		<rect id="p_17_" x="331.3" width="12.7" height="12.7"/>
	</g>
	<g>
		<rect id="p_18_" x="344" width="12.7" height="12.7"/>
	</g>
	<g>
		<rect id="p_19_" x="356.8" width="12.7" height="12.7"/>
	</g>
	<g>
		<rect id="p_20_" y="12.7" width="12.7" height="12.7"/>
	</g>
	<g>
		<rect id="p_21_" x="76.4" y="12.7" width="12.7" height="12.7"/>
	</g>
	<g>
		<rect id="p_22_" x="101.9" y="12.7" width="12.7" height="12.7"/>
	</g>
	<g>
		<rect id="p_23_" x="127.4" y="12.7" width="12.7" height="12.7"/>
	</g>
	<g>
		<rect id="p_24_" x="140.2" y="12.7" width="12.7" height="12.7"/>
	</g>
	<g>
		<rect id="p_25_" x="152.9" y="12.7" width="12.7" height="12.7"/>
	</g>
	<g>
		<rect id="p_26_" x="165.6" y="12.7" width="12.7" height="12.7"/>
	</g>
	<g>
		<rect id="p_27_" x="216.6" y="12.7" width="12.7" height="12.7"/>
	</g>
	<g>
		<rect id="p_28_" x="229.3" y="12.7" width="12.7" height="12.7"/>
	</g>
	<g>
		<rect id="p_29_" x="242.1" y="12.7" width="12.7" height="12.7"/>
	</g>
	<g>
		<rect id="p_30_" x="280.3" y="12.7" width="12.7" height="12.7"/>
	</g>
	<g>
		<rect id="p_31_" x="356.8" y="12.7" width="12.7" height="12.7"/>
	</g>
	<g>
		<rect id="p_32_" y="25.5" width="12.7" height="12.7"/>
	</g>
	<g>
		<rect id="p_33_" x="25.5" y="25.5" width="12.7" height="12.7"/>
	</g>
	<g>
		<rect id="p_34_" x="38.2" y="25.5" width="12.7" height="12.7"/>
	</g>
	<g>
		<rect id="p_35_" x="51" y="25.5" width="12.7" height="12.7"/>
	</g>
	<g>
		<rect id="p_36_" x="76.4" y="25.5" width="12.7" height="12.7"/>
	</g>
	<g>
		<rect id="p_37_" x="114.7" y="25.5" width="12.7" height="12.7"/>
	</g>
	<g>
		<rect id="p_38_" x="140.2" y="25.5" width="12.7" height="12.7"/>
	</g>
	<g>
		<rect id="p_39_" x="178.4" y="25.5" width="12.7" height="12.7"/>
	</g>
	<g>
		<rect id="p_40_" x="203.9" y="25.5" width="12.7" height="12.7"/>
	</g>
	<g>
		<rect id="p_41_" x="242.1" y="25.5" width="12.7" height="12.7"/>
	</g>
	<g>
		<rect id="p_42_" x="280.3" y="25.5" width="12.7" height="12.7"/>
	</g>
	<g>
		<rect id="p_43_" x="305.8" y="25.5" width="12.7" height="12.7"/>
	</g>
	<g>
		<rect id="p_44_" x="318.5" y="25.5" width="12.7" height="12.7"/>
	</g>
	<g>
		<rect id="p_45_" x="331.3" y="25.5" width="12.7" height="12.7"/>
	</g>
	<g>
		<rect id="p_46_" x="356.8" y="25.5" width="12.7" height="12.7"/>
	</g>
	<g>
		<rect id="p_47_" y="38.2" width="12.7" height="12.7"/>
	</g>
	<g>
		<rect id="p_48_" x="25.5" y="38.2" width="12.7" height="12.7"/>
	</g>
	<g>
		<rect id="p_49_" x="38.2" y="38.2" width="12.7" height="12.7"/>
	</g>
	<g>
		<rect id="p_50_" x="51" y="38.2" width="12.7" height="12.7"/>
	</g>
	<g>
		<rect id="p_51_" x="76.4" y="38.2" width="12.7" height="12.7"/>
	</g>
	<g>
		<rect id="p_52_" x="101.9" y="38.2" width="12.7" height="12.7"/>
	</g>
	<g>
		<rect id="p_53_" x="127.4" y="38.2" width="12.7" height="12.7"/>
	</g>
	<g>
		<rect id="p_54_" x="140.2" y="38.2" width="12.7" height="12.7"/>
	</g>
	<g>
		<rect id="p_55_" x="152.9" y="38.2" width="12.7" height="12.7"/>
	</g>
	<g>
		<rect id="p_56_" x="165.6" y="38.2" width="12.7" height="12.7"/>
	</g>
	<g>
		<rect id="p_57_" x="178.4" y="38.2" width="12.7" height="12.7"/>
	</g>
	<g>
		<rect id="p_58_" x="216.6" y="38.2" width="12.7" height="12.7"/>
	</g>
	<g>
		<rect id="p_59_" x="242.1" y="38.2" width="12.7" height="12.7"/>
	</g>
	<g>
		<rect id="p_60_" x="254.8" y="38.2" width="12.7" height="12.7"/>
	</g>
	<g>
		<rect id="p_61_" x="280.3" y="38.2" width="12.7" height="12.7"/>
	</g>
	<g>
		<rect id="p_62_" x="305.8" y="38.2" width="12.7" height="12.7"/>
	</g>
	<g>
		<rect id="p_63_" x="318.5" y="38.2" width="12.7" height="12.7"/>
	</g>
	<g>
		<rect id="p_64_" x="331.3" y="38.2" width="12.7" height="12.7"/>
	</g>
	<g>
		<rect id="p_65_" x="356.8" y="38.2" width="12.7" height="12.7"/>
	</g>
	<g>
		<rect id="p_66_" y="51" width="12.7" height="12.7"/>
	</g>
	<g>
		<rect id="p_67_" x="25.5" y="51" width="12.7" height="12.7"/>
	</g>
	<g>
		<rect id="p_68_" x="38.2" y="51" width="12.7" height="12.7"/>
	</g>
	<g>
		<rect id="p_69_" x="51" y="51" width="12.7" height="12.7"/>
	</g>
	<g>
		<rect id="p_70_" x="76.4" y="51" width="12.7" height="12.7"/>
	</g>
	<g>
		<rect id="p_71_" x="101.9" y="51" width="12.7" height="12.7"/>
	</g>
	<g>
		<rect id="p_72_" x="127.4" y="51" width="12.7" height="12.7"/>
	</g>
	<g>
		<rect id="p_73_" x="140.2" y="51" width="12.7" height="12.7"/>
	</g>
	<g>
		<rect id="p_74_" x="152.9" y="51" width="12.7" height="12.7"/>
	</g>
	<g>
		<rect id="p_75_" x="165.6" y="51" width="12.7" height="12.7"/>
	</g>
	<g>
		<rect id="p_76_" x="178.4" y="51" width="12.7" height="12.7"/>
	</g>
	<g>
		<rect id="p_77_" x="191.1" y="51" width="12.7" height="12.7"/>
	</g>
	<g>
		<rect id="p_78_" x="242.1" y="51" width="12.7" height="12.7"/>
	</g>
	<g>
		<rect id="p_79_" x="280.3" y="51" width="12.7" height="12.7"/>
	</g>
	<g>
		<rect id="p_80_" x="305.8" y="51" width="12.7" height="12.7"/>
	</g>
	<g>
		<rect id="p_81_" x="318.5" y="51" width="12.7" height="12.7"/>
	</g>
	<g>
		<rect id="p_82_" x="331.3" y="51" width="12.7" height="12.7"/>
	</g>
	<g>
		<rect id="p_83_" x="356.8" y="51" width="12.7" height="12.7"/>
	</g>
	<g>
		<rect id="p_84_" y="63.7" width="12.7" height="12.7"/>
	</g>
	<g>
		<rect id="p_85_" x="76.4" y="63.7" width="12.7" height="12.7"/>
	</g>
	<g>
		<rect id="p_86_" x="152.9" y="63.7" width="12.7" height="12.7"/>
	</g>
	<g>
		<rect id="p_87_" x="178.4" y="63.7" width="12.7" height="12.7"/>
	</g>
	<g>
		<rect id="p_88_" x="191.1" y="63.7" width="12.7" height="12.7"/>
	</g>
	<g>
		<rect id="p_89_" x="203.9" y="63.7" width="12.7" height="12.7"/>
	</g>
	<g>
		<rect id="p_90_" x="254.8" y="63.7" width="12.7" height="12.7"/>
	</g>
	<g>
		<rect id="p_91_" x="280.3" y="63.7" width="12.7" height="12.7"/>
	</g>
	<g>
		<rect id="p_92_" x="356.8" y="63.7" width="12.7" height="12.7"/>
	</g>
	<g>
		<rect id="p_93_" y="76.4" width="12.7" height="12.7"/>
	</g>
	<g>
		<rect id="p_94_" x="12.7" y="76.4" width="12.7" height="12.7"/>
	</g>
	<g>
		<rect id="p_95_" x="25.5" y="76.4" width="12.7" height="12.7"/>
	</g>
	<g>
		<rect id="p_96_" x="38.2" y="76.4" width="12.7" height="12.7"/>
	</g>
	<g>
		<rect id="p_97_" x="51" y="76.4" width="12.7" height="12.7"/>
	</g>
	<g>
		<rect id="p_98_" x="63.7" y="76.4" width="12.7" height="12.7"/>
	</g>
	<g>
		<rect id="p_99_" x="76.4" y="76.4" width="12.7" height="12.7"/>
	</g>
	<g>
		<rect id="p_100_" x="101.9" y="76.4" width="12.7" height="12.7"/>
	</g>
	<g>
		<rect id="p_101_" x="127.4" y="76.4" width="12.7" height="12.7"/>
	</g>
	<g>
		<rect id="p_102_" x="152.9" y="76.4" width="12.7" height="12.7"/>
	</g>
	<g>
		<rect id="p_103_" x="178.4" y="76.4" width="12.7" height="12.7"/>
	</g>
	<g>
		<rect id="p_104_" x="203.9" y="76.4" width="12.7" height="12.7"/>
	</g>
	<g>
		<rect id="p_105_" x="229.3" y="76.4" width="12.7" height="12.7"/>
	</g>
	<g>
		<rect id="p_106_" x="254.8" y="76.4" width="12.7" height="12.7"/>
	</g>
	<g>
		<rect id="p_107_" x="280.3" y="76.4" width="12.7" height="12.7"/>
	</g>
	<g>
		<rect id="p_108_" x="293.1" y="76.4" width="12.7" height="12.7"/>
	</g>
	<g>
		<rect id="p_109_" x="305.8" y="76.4" width="12.7" height="12.7"/>
	</g>
	<g>
		<rect id="p_110_" x="318.5" y="76.4" width="12.7" height="12.7"/>
	</g>
	<g>
		<rect id="p_111_" x="331.3" y="76.4" width="12.7" height="12.7"/>
	</g>
	<g>
		<rect id="p_112_" x="344" y="76.4" width="12.7" height="12.7"/>
	</g>
	<g>
		<rect id="p_113_" x="356.8" y="76.4" width="12.7" height="12.7"/>
	</g>
	<g>
		<rect id="p_114_" x="101.9" y="89.2" width="12.7" height="12.7"/>
	</g>
	<g>
		<rect id="p_115_" x="114.7" y="89.2" width="12.7" height="12.7"/>
	</g>
	<g>
		<rect id="p_116_" x="127.4" y="89.2" width="12.7" height="12.7"/>
	</g>
	<g>
		<rect id="p_117_" x="140.2" y="89.2" width="12.7" height="12.7"/>
	</g>
	<g>
		<rect id="p_118_" x="191.1" y="89.2" width="12.7" height="12.7"/>
	</g>
	<g>
		<rect id="p_119_" x="203.9" y="89.2" width="12.7" height="12.7"/>
	</g>
	<g>
		<rect id="p_120_" x="229.3" y="89.2" width="12.7" height="12.7"/>
	</g>
	<g>
		<rect id="p_121_" x="242.1" y="89.2" width="12.7" height="12.7"/>
	</g>
	<g>
		<rect id="p_122_" x="12.7" y="101.9" width="12.7" height="12.7"/>
	</g>
	<g>
		<rect id="p_123_" x="38.2" y="101.9" width="12.7" height="12.7"/>
	</g>
	<g>
		<rect id="p_124_" x="51" y="101.9" width="12.7" height="12.7"/>
	</g>
	<g>
		<rect id="p_125_" x="63.7" y="101.9" width="12.7" height="12.7"/>
	</g>
	<g>
		<rect id="p_126_" x="76.4" y="101.9" width="12.7" height="12.7"/>
	</g>
	<g>
		<rect id="p_127_" x="101.9" y="101.9" width="12.7" height="12.7"/>
	</g>
	<g>
		<rect id="p_128_" x="114.7" y="101.9" width="12.7" height="12.7"/>
	</g>
	<g>
		<rect id="p_129_" x="127.4" y="101.9" width="12.7" height="12.7"/>
	</g>
	<g>
		<rect id="p_130_" x="165.6" y="101.9" width="12.7" height="12.7"/>
	</g>
	<g>
		<rect id="p_131_" x="178.4" y="101.9" width="12.7" height="12.7"/>
	</g>
	<g>
		<rect id="p_132_" x="191.1" y="101.9" width="12.7" height="12.7"/>
	</g>
	<g>
		<rect id="p_133_" x="216.6" y="101.9" width="12.7" height="12.7"/>
	</g>
	<g>
		<rect id="p_134_" x="242.1" y="101.9" width="12.7" height="12.7"/>
	</g>
	<g>
		<rect id="p_135_" x="254.8" y="101.9" width="12.7" height="12.7"/>
	</g>
	<g>
		<rect id="p_136_" x="267.6" y="101.9" width="12.7" height="12.7"/>
	</g>
	<g>
		<rect id="p_137_" x="280.3" y="101.9" width="12.7" height="12.7"/>
	</g>
	<g>
		<rect id="p_138_" x="305.8" y="101.9" width="12.7" height="12.7"/>
	</g>
	<g>
		<rect id="p_139_" x="318.5" y="101.9" width="12.7" height="12.7"/>
	</g>
	<g>
		<rect id="p_140_" x="344" y="101.9" width="12.7" height="12.7"/>
	</g>
	<g>
		<rect id="p_141_" x="38.2" y="114.7" width="12.7" height="12.7"/>
	</g>
	<g>
		<rect id="p_142_" x="51" y="114.7" width="12.7" height="12.7"/>
	</g>
	<g>
		<rect id="p_143_" x="63.7" y="114.7" width="12.7" height="12.7"/>
	</g>
	<g>
		<rect id="p_144_" x="89.2" y="114.7" width="12.7" height="12.7"/>
	</g>
	<g>
		<rect id="p_145_" x="114.7" y="114.7" width="12.7" height="12.7"/>
	</g>
	<g>
		<rect id="p_146_" x="127.4" y="114.7" width="12.7" height="12.7"/>
	</g>
	<g>
		<rect id="p_147_" x="140.2" y="114.7" width="12.7" height="12.7"/>
	</g>
	<g>
		<rect id="p_148_" x="152.9" y="114.7" width="12.7" height="12.7"/>
	</g>
	<g>
		<rect id="p_149_" x="191.1" y="114.7" width="12.7" height="12.7"/>
	</g>
	<g>
		<rect id="p_150_" x="203.9" y="114.7" width="12.7" height="12.7"/>
	</g>
	<g>
		<rect id="p_151_" x="229.3" y="114.7" width="12.7" height="12.7"/>
	</g>
	<g>
		<rect id="p_152_" x="242.1" y="114.7" width="12.7" height="12.7"/>
	</g>
	<g>
		<rect id="p_153_" x="254.8" y="114.7" width="12.7" height="12.7"/>
	</g>
	<g>
		<rect id="p_154_" x="267.6" y="114.7" width="12.7" height="12.7"/>
	</g>
	<g>
		<rect id="p_155_" x="293.1" y="114.7" width="12.7" height="12.7"/>
	</g>
	<g>
		<rect id="p_156_" x="305.8" y="114.7" width="12.7" height="12.7"/>
	</g>
	<g>
		<rect id="p_157_" x="318.5" y="114.7" width="12.7" height="12.7"/>
	</g>
	<g>
		<rect id="p_158_" x="331.3" y="114.7" width="12.7" height="12.7"/>
	</g>
	<g>
		<rect id="p_159_" x="344" y="114.7" width="12.7" height="12.7"/>
	</g>
	<g>
		<rect id="p_160_" y="127.4" width="12.7" height="12.7"/>
	</g>
	<g>
		<rect id="p_161_" x="12.7" y="127.4" width="12.7" height="12.7"/>
	</g>
	<g>
		<rect id="p_162_" x="25.5" y="127.4" width="12.7" height="12.7"/>
	</g>
	<g>
		<rect id="p_163_" x="51" y="127.4" width="12.7" height="12.7"/>
	</g>
	<g>
		<rect id="p_164_" x="63.7" y="127.4" width="12.7" height="12.7"/>
	</g>
	<g>
		<rect id="p_165_" x="76.4" y="127.4" width="12.7" height="12.7"/>
	</g>
	<g>
		<rect id="p_166_" x="101.9" y="127.4" width="12.7" height="12.7"/>
	</g>
	<g>
		<rect id="p_167_" x="114.7" y="127.4" width="12.7" height="12.7"/>
	</g>
	<g>
		<rect id="p_168_" x="152.9" y="127.4" width="12.7" height="12.7"/>
	</g>
	<g>
		<rect id="p_169_" x="191.1" y="127.4" width="12.7" height="12.7"/>
	</g>
	<g>
		<rect id="p_170_" x="216.6" y="127.4" width="12.7" height="12.7"/>
	</g>
	<g>
		<rect id="p_171_" x="267.6" y="127.4" width="12.7" height="12.7"/>
	</g>
	<g>
		<rect id="p_172_" x="280.3" y="127.4" width="12.7" height="12.7"/>
	</g>
	<g>
		<rect id="p_173_" x="331.3" y="127.4" width="12.7" height="12.7"/>
	</g>
	<g>
		<rect id="p_174_" x="12.7" y="140.2" width="12.7" height="12.7"/>
	</g>
	<g>
		<rect id="p_175_" x="25.5" y="140.2" width="12.7" height="12.7"/>
	</g>
	<g>
		<rect id="p_176_" x="38.2" y="140.2" width="12.7" height="12.7"/>
	</g>
	<g>
		<rect id="p_177_" x="114.7" y="140.2" width="12.7" height="12.7"/>
	</g>
	<g>
		<rect id="p_178_" x="140.2" y="140.2" width="12.7" height="12.7"/>
	</g>
	<g>
		<rect id="p_179_" x="165.6" y="140.2" width="12.7" height="12.7"/>
	</g>
	<g>
		<rect id="p_180_" x="191.1" y="140.2" width="12.7" height="12.7"/>
	</g>
	<g>
		<rect id="p_181_" x="203.9" y="140.2" width="12.7" height="12.7"/>
	</g>
	<g>
		<rect id="p_182_" x="216.6" y="140.2" width="12.7" height="12.7"/>
	</g>
	<g>
		<rect id="p_183_" x="318.5" y="140.2" width="12.7" height="12.7"/>
	</g>
	<g>
		<rect id="p_184_" x="356.8" y="140.2" width="12.7" height="12.7"/>
	</g>
	<g>
		<rect id="p_185_" x="25.5" y="152.9" width="12.7" height="12.7"/>
	</g>
	<g>
		<rect id="p_186_" x="38.2" y="152.9" width="12.7" height="12.7"/>
	</g>
	<g>
		<rect id="p_187_" x="76.4" y="152.9" width="12.7" height="12.7"/>
	</g>
	<g>
		<rect id="p_188_" x="114.7" y="152.9" width="12.7" height="12.7"/>
	</g>
	<g>
		<rect id="p_189_" x="140.2" y="152.9" width="12.7" height="12.7"/>
	</g>
	<g>
		<rect id="p_190_" x="152.9" y="152.9" width="12.7" height="12.7"/>
	</g>
	<g>
		<rect id="p_191_" x="165.6" y="152.9" width="12.7" height="12.7"/>
	</g>
	<g>
		<rect id="p_192_" x="178.4" y="152.9" width="12.7" height="12.7"/>
	</g>
	<g>
		<rect id="p_193_" x="242.1" y="152.9" width="12.7" height="12.7"/>
	</g>
	<g>
		<rect id="p_194_" x="267.6" y="152.9" width="12.7" height="12.7"/>
	</g>
	<g>
		<rect id="p_195_" x="280.3" y="152.9" width="12.7" height="12.7"/>
	</g>
	<g>
		<rect id="p_196_" x="318.5" y="152.9" width="12.7" height="12.7"/>
	</g>
	<g>
		<rect id="p_197_" x="344" y="152.9" width="12.7" height="12.7"/>
	</g>
	<g>
		<rect id="p_198_" y="165.6" width="12.7" height="12.7"/>
	</g>
	<g>
		<rect id="p_199_" x="12.7" y="165.6" width="12.7" height="12.7"/>
	</g>
	<g>
		<rect id="p_200_" x="38.2" y="165.6" width="12.7" height="12.7"/>
	</g>
	<g>
		<rect id="p_201_" x="51" y="165.6" width="12.7" height="12.7"/>
	</g>
	<g>
		<rect id="p_202_" x="63.7" y="165.6" width="12.7" height="12.7"/>
	</g>
	<g>
		<rect id="p_203_" x="89.2" y="165.6" width="12.7" height="12.7"/>
	</g>
	<g>
		<rect id="p_204_" x="114.7" y="165.6" width="12.7" height="12.7"/>
	</g>
	<g>
		<rect id="p_205_" x="152.9" y="165.6" width="12.7" height="12.7"/>
	</g>
	<g>
		<rect id="p_206_" x="203.9" y="165.6" width="12.7" height="12.7"/>
	</g>
	<g>
		<rect id="p_207_" x="216.6" y="165.6" width="12.7" height="12.7"/>
	</g>
	<g>
		<rect id="p_208_" x="229.3" y="165.6" width="12.7" height="12.7"/>
	</g>
	<g>
		<rect id="p_209_" x="280.3" y="165.6" width="12.7" height="12.7"/>
	</g>
	<g>
		<rect id="p_210_" x="305.8" y="165.6" width="12.7" height="12.7"/>
	</g>
	<g>
		<rect id="p_211_" x="331.3" y="165.6" width="12.7" height="12.7"/>
	</g>
	<g>
		<rect id="p_212_" x="344" y="165.6" width="12.7" height="12.7"/>
	</g>
	<g>
		<rect id="p_213_" x="356.8" y="165.6" width="12.7" height="12.7"/>
	</g>
	<g>
		<rect id="p_214_" x="25.5" y="178.4" width="12.7" height="12.7"/>
	</g>
	<g>
		<rect id="p_215_" x="38.2" y="178.4" width="12.7" height="12.7"/>
	</g>
	<g>
		<rect id="p_216_" x="63.7" y="178.4" width="12.7" height="12.7"/>
	</g>
	<g>
		<rect id="p_217_" x="76.4" y="178.4" width="12.7" height="12.7"/>
	</g>
	<g>
		<rect id="p_218_" x="89.2" y="178.4" width="12.7" height="12.7"/>
	</g>
	<g>
		<rect id="p_219_" x="127.4" y="178.4" width="12.7" height="12.7"/>
	</g>
	<g>
		<rect id="p_220_" x="140.2" y="178.4" width="12.7" height="12.7"/>
	</g>
	<g>
		<rect id="p_221_" x="152.9" y="178.4" width="12.7" height="12.7"/>
	</g>
	<g>
		<rect id="p_222_" x="165.6" y="178.4" width="12.7" height="12.7"/>
	</g>
	<g>
		<rect id="p_223_" x="191.1" y="178.4" width="12.7" height="12.7"/>
	</g>
	<g>
		<rect id="p_224_" x="216.6" y="178.4" width="12.7" height="12.7"/>
	</g>
	<g>
		<rect id="p_225_" x="229.3" y="178.4" width="12.7" height="12.7"/>
	</g>
	<g>
		<rect id="p_226_" x="242.1" y="178.4" width="12.7" height="12.7"/>
	</g>
	<g>
		<rect id="p_227_" x="280.3" y="178.4" width="12.7" height="12.7"/>
	</g>
	<g>
		<rect id="p_228_" x="293.1" y="178.4" width="12.7" height="12.7"/>
	</g>
	<g>
		<rect id="p_229_" x="318.5" y="178.4" width="12.7" height="12.7"/>
	</g>
	<g>
		<rect id="p_230_" x="356.8" y="178.4" width="12.7" height="12.7"/>
	</g>
	<g>
		<rect id="p_231_" y="191.1" width="12.7" height="12.7"/>
	</g>
	<g>
		<rect id="p_232_" x="12.7" y="191.1" width="12.7" height="12.7"/>
	</g>
	<g>
		<rect id="p_233_" x="63.7" y="191.1" width="12.7" height="12.7"/>
	</g>
	<g>
		<rect id="p_234_" x="101.9" y="191.1" width="12.7" height="12.7"/>
	</g>
	<g>
		<rect id="p_235_" x="127.4" y="191.1" width="12.7" height="12.7"/>
	</g>
	<g>
		<rect id="p_236_" x="152.9" y="191.1" width="12.7" height="12.7"/>
	</g>
	<g>
		<rect id="p_237_" x="165.6" y="191.1" width="12.7" height="12.7"/>
	</g>
	<g>
		<rect id="p_238_" x="191.1" y="191.1" width="12.7" height="12.7"/>
	</g>
	<g>
		<rect id="p_239_" x="203.9" y="191.1" width="12.7" height="12.7"/>
	</g>
	<g>
		<rect id="p_240_" x="229.3" y="191.1" width="12.7" height="12.7"/>
	</g>
	<g>
		<rect id="p_241_" x="242.1" y="191.1" width="12.7" height="12.7"/>
	</g>
	<g>
		<rect id="p_242_" x="305.8" y="191.1" width="12.7" height="12.7"/>
	</g>
	<g>
		<rect id="p_243_" x="318.5" y="191.1" width="12.7" height="12.7"/>
	</g>
	<g>
		<rect id="p_244_" x="331.3" y="191.1" width="12.7" height="12.7"/>
	</g>
	<g>
		<rect id="p_245_" x="344" y="191.1" width="12.7" height="12.7"/>
	</g>
	<g>
		<rect id="p_246_" y="203.9" width="12.7" height="12.7"/>
	</g>
	<g>
		<rect id="p_247_" x="25.5" y="203.9" width="12.7" height="12.7"/>
	</g>
	<g>
		<rect id="p_248_" x="51" y="203.9" width="12.7" height="12.7"/>
	</g>
	<g>
		<rect id="p_249_" x="76.4" y="203.9" width="12.7" height="12.7"/>
	</g>
	<g>
		<rect id="p_250_" x="140.2" y="203.9" width="12.7" height="12.7"/>
	</g>
	<g>
		<rect id="p_251_" x="165.6" y="203.9" width="12.7" height="12.7"/>
	</g>
	<g>
		<rect id="p_252_" x="178.4" y="203.9" width="12.7" height="12.7"/>
	</g>
	<g>
		<rect id="p_253_" x="191.1" y="203.9" width="12.7" height="12.7"/>
	</g>
	<g>
		<rect id="p_254_" x="293.1" y="203.9" width="12.7" height="12.7"/>
	</g>
	<g>
		<rect id="p_255_" x="318.5" y="203.9" width="12.7" height="12.7"/>
	</g>
	<g>
		<rect id="p_256_" x="344" y="203.9" width="12.7" height="12.7"/>
	</g>
	<g>
		<rect id="p_257_" y="216.6" width="12.7" height="12.7"/>
	</g>
	<g>
		<rect id="p_258_" x="12.7" y="216.6" width="12.7" height="12.7"/>
	</g>
	<g>
		<rect id="p_259_" x="25.5" y="216.6" width="12.7" height="12.7"/>
	</g>
	<g>
		<rect id="p_260_" x="38.2" y="216.6" width="12.7" height="12.7"/>
	</g>
	<g>
		<rect id="p_261_" x="89.2" y="216.6" width="12.7" height="12.7"/>
	</g>
	<g>
		<rect id="p_262_" x="127.4" y="216.6" width="12.7" height="12.7"/>
	</g>
	<g>
		<rect id="p_263_" x="140.2" y="216.6" width="12.7" height="12.7"/>
	</g>
	<g>
		<rect id="p_264_" x="152.9" y="216.6" width="12.7" height="12.7"/>
	</g>
	<g>
		<rect id="p_265_" x="242.1" y="216.6" width="12.7" height="12.7"/>
	</g>
	<g>
		<rect id="p_266_" x="305.8" y="216.6" width="12.7" height="12.7"/>
	</g>
	<g>
		<rect id="p_267_" x="318.5" y="216.6" width="12.7" height="12.7"/>
	</g>
	<g>
		<rect id="p_268_" x="331.3" y="216.6" width="12.7" height="12.7"/>
	</g>
	<g>
		<rect id="p_269_" y="229.3" width="12.7" height="12.7"/>
	</g>
	<g>
		<rect id="p_270_" x="12.7" y="229.3" width="12.7" height="12.7"/>
	</g>
	<g>
		<rect id="p_271_" x="38.2" y="229.3" width="12.7" height="12.7"/>
	</g>
	<g>
		<rect id="p_272_" x="76.4" y="229.3" width="12.7" height="12.7"/>
	</g>
	<g>
		<rect id="p_273_" x="89.2" y="229.3" width="12.7" height="12.7"/>
	</g>
	<g>
		<rect id="p_274_" x="101.9" y="229.3" width="12.7" height="12.7"/>
	</g>
	<g>
		<rect id="p_275_" x="127.4" y="229.3" width="12.7" height="12.7"/>
	</g>
	<g>
		<rect id="p_276_" x="140.2" y="229.3" width="12.7" height="12.7"/>
	</g>
	<g>
		<rect id="p_277_" x="152.9" y="229.3" width="12.7" height="12.7"/>
	</g>
	<g>
		<rect id="p_278_" x="178.4" y="229.3" width="12.7" height="12.7"/>
	</g>
	<g>
		<rect id="p_279_" x="203.9" y="229.3" width="12.7" height="12.7"/>
	</g>
	<g>
		<rect id="p_280_" x="242.1" y="229.3" width="12.7" height="12.7"/>
	</g>
	<g>
		<rect id="p_281_" x="254.8" y="229.3" width="12.7" height="12.7"/>
	</g>
	<g>
		<rect id="p_282_" x="356.8" y="229.3" width="12.7" height="12.7"/>
	</g>
	<g>
		<rect id="p_283_" y="242.1" width="12.7" height="12.7"/>
	</g>
	<g>
		<rect id="p_284_" x="12.7" y="242.1" width="12.7" height="12.7"/>
	</g>
	<g>
		<rect id="p_285_" x="25.5" y="242.1" width="12.7" height="12.7"/>
	</g>
	<g>
		<rect id="p_286_" x="63.7" y="242.1" width="12.7" height="12.7"/>
	</g>
	<g>
		<rect id="p_287_" x="101.9" y="242.1" width="12.7" height="12.7"/>
	</g>
	<g>
		<rect id="p_288_" x="114.7" y="242.1" width="12.7" height="12.7"/>
	</g>
	<g>
		<rect id="p_289_" x="127.4" y="242.1" width="12.7" height="12.7"/>
	</g>
	<g>
		<rect id="p_290_" x="152.9" y="242.1" width="12.7" height="12.7"/>
	</g>
	<g>
		<rect id="p_291_" x="165.6" y="242.1" width="12.7" height="12.7"/>
	</g>
	<g>
		<rect id="p_292_" x="178.4" y="242.1" width="12.7" height="12.7"/>
	</g>
	<g>
		<rect id="p_293_" x="191.1" y="242.1" width="12.7" height="12.7"/>
	</g>
	<g>
		<rect id="p_294_" x="203.9" y="242.1" width="12.7" height="12.7"/>
	</g>
	<g>
		<rect id="p_295_" x="242.1" y="242.1" width="12.7" height="12.7"/>
	</g>
	<g>
		<rect id="p_296_" x="267.6" y="242.1" width="12.7" height="12.7"/>
	</g>
	<g>
		<rect id="p_297_" x="280.3" y="242.1" width="12.7" height="12.7"/>
	</g>
	<g>
		<rect id="p_298_" x="305.8" y="242.1" width="12.7" height="12.7"/>
	</g>
	<g>
		<rect id="p_299_" x="331.3" y="242.1" width="12.7" height="12.7"/>
	</g>
	<g>
		<rect id="p_300_" x="344" y="242.1" width="12.7" height="12.7"/>
	</g>
	<g>
		<rect id="p_301_" x="356.8" y="242.1" width="12.7" height="12.7"/>
	</g>
	<g>
		<rect id="p_302_" y="254.8" width="12.7" height="12.7"/>
	</g>
	<g>
		<rect id="p_303_" x="12.7" y="254.8" width="12.7" height="12.7"/>
	</g>
	<g>
		<rect id="p_304_" x="51" y="254.8" width="12.7" height="12.7"/>
	</g>
	<g>
		<rect id="p_305_" x="63.7" y="254.8" width="12.7" height="12.7"/>
	</g>
	<g>
		<rect id="p_306_" x="76.4" y="254.8" width="12.7" height="12.7"/>
	</g>
	<g>
		<rect id="p_307_" x="89.2" y="254.8" width="12.7" height="12.7"/>
	</g>
	<g>
		<rect id="p_308_" x="127.4" y="254.8" width="12.7" height="12.7"/>
	</g>
	<g>
		<rect id="p_309_" x="140.2" y="254.8" width="12.7" height="12.7"/>
	</g>
	<g>
		<rect id="p_310_" x="152.9" y="254.8" width="12.7" height="12.7"/>
	</g>
	<g>
		<rect id="p_311_" x="165.6" y="254.8" width="12.7" height="12.7"/>
	</g>
	<g>
		<rect id="p_312_" x="178.4" y="254.8" width="12.7" height="12.7"/>
	</g>
	<g>
		<rect id="p_313_" x="203.9" y="254.8" width="12.7" height="12.7"/>
	</g>
	<g>
		<rect id="p_314_" x="216.6" y="254.8" width="12.7" height="12.7"/>
	</g>
	<g>
		<rect id="p_315_" x="242.1" y="254.8" width="12.7" height="12.7"/>
	</g>
	<g>
		<rect id="p_316_" x="254.8" y="254.8" width="12.7" height="12.7"/>
	</g>
	<g>
		<rect id="p_317_" x="267.6" y="254.8" width="12.7" height="12.7"/>
	</g>
	<g>
		<rect id="p_318_" x="280.3" y="254.8" width="12.7" height="12.7"/>
	</g>
	<g>
		<rect id="p_319_" x="293.1" y="254.8" width="12.7" height="12.7"/>
	</g>
	<g>
		<rect id="p_320_" x="305.8" y="254.8" width="12.7" height="12.7"/>
	</g>
	<g>
		<rect id="p_321_" x="331.3" y="254.8" width="12.7" height="12.7"/>
	</g>
	<g>
		<rect id="p_322_" x="101.9" y="267.6" width="12.7" height="12.7"/>
	</g>
	<g>
		<rect id="p_323_" x="165.6" y="267.6" width="12.7" height="12.7"/>
	</g>
	<g>
		<rect id="p_324_" x="178.4" y="267.6" width="12.7" height="12.7"/>
	</g>
	<g>
		<rect id="p_325_" x="191.1" y="267.6" width="12.7" height="12.7"/>
	</g>
	<g>
		<rect id="p_326_" x="203.9" y="267.6" width="12.7" height="12.7"/>
	</g>
	<g>
		<rect id="p_327_" x="229.3" y="267.6" width="12.7" height="12.7"/>
	</g>
	<g>
		<rect id="p_328_" x="254.8" y="267.6" width="12.7" height="12.7"/>
	</g>
	<g>
		<rect id="p_329_" x="305.8" y="267.6" width="12.7" height="12.7"/>
	</g>
	<g>
		<rect id="p_330_" x="318.5" y="267.6" width="12.7" height="12.7"/>
	</g>
	<g>
		<rect id="p_331_" x="331.3" y="267.6" width="12.7" height="12.7"/>
	</g>
	<g>
		<rect id="p_332_" x="344" y="267.6" width="12.7" height="12.7"/>
	</g>
	<g>
		<rect id="p_333_" y="280.3" width="12.7" height="12.7"/>
	</g>
	<g>
		<rect id="p_334_" x="12.7" y="280.3" width="12.7" height="12.7"/>
	</g>
	<g>
		<rect id="p_335_" x="25.5" y="280.3" width="12.7" height="12.7"/>
	</g>
	<g>
		<rect id="p_336_" x="38.2" y="280.3" width="12.7" height="12.7"/>
	</g>
	<g>
		<rect id="p_337_" x="51" y="280.3" width="12.7" height="12.7"/>
	</g>
	<g>
		<rect id="p_338_" x="63.7" y="280.3" width="12.7" height="12.7"/>
	</g>
	<g>
		<rect id="p_339_" x="76.4" y="280.3" width="12.7" height="12.7"/>
	</g>
	<g>
		<rect id="p_340_" x="127.4" y="280.3" width="12.7" height="12.7"/>
	</g>
	<g>
		<rect id="p_341_" x="178.4" y="280.3" width="12.7" height="12.7"/>
	</g>
	<g>
		<rect id="p_342_" x="191.1" y="280.3" width="12.7" height="12.7"/>
	</g>
	<g>
		<rect id="p_343_" x="203.9" y="280.3" width="12.7" height="12.7"/>
	</g>
	<g>
		<rect id="p_344_" x="216.6" y="280.3" width="12.7" height="12.7"/>
	</g>
	<g>
		<rect id="p_345_" x="229.3" y="280.3" width="12.7" height="12.7"/>
	</g>
	<g>
		<rect id="p_346_" x="242.1" y="280.3" width="12.7" height="12.7"/>
	</g>
	<g>
		<rect id="p_347_" x="254.8" y="280.3" width="12.7" height="12.7"/>
	</g>
	<g>
		<rect id="p_348_" x="280.3" y="280.3" width="12.7" height="12.7"/>
	</g>
	<g>
		<rect id="p_349_" x="305.8" y="280.3" width="12.7" height="12.7"/>
	</g>
	<g>
		<rect id="p_350_" x="331.3" y="280.3" width="12.7" height="12.7"/>
	</g>
	<g>
		<rect id="p_351_" y="293.1" width="12.7" height="12.7"/>
	</g>
	<g>
		<rect id="p_352_" x="76.4" y="293.1" width="12.7" height="12.7"/>
	</g>
	<g>
		<rect id="p_353_" x="101.9" y="293.1" width="12.7" height="12.7"/>
	</g>
	<g>
		<rect id="p_354_" x="140.2" y="293.1" width="12.7" height="12.7"/>
	</g>
	<g>
		<rect id="p_355_" x="152.9" y="293.1" width="12.7" height="12.7"/>
	</g>
	<g>
		<rect id="p_356_" x="178.4" y="293.1" width="12.7" height="12.7"/>
	</g>
	<g>
		<rect id="p_357_" x="203.9" y="293.1" width="12.7" height="12.7"/>
	</g>
	<g>
		<rect id="p_358_" x="216.6" y="293.1" width="12.7" height="12.7"/>
	</g>
	<g>
		<rect id="p_359_" x="229.3" y="293.1" width="12.7" height="12.7"/>
	</g>
	<g>
		<rect id="p_360_" x="242.1" y="293.1" width="12.7" height="12.7"/>
	</g>
	<g>
		<rect id="p_361_" x="254.8" y="293.1" width="12.7" height="12.7"/>
	</g>
	<g>
		<rect id="p_362_" x="305.8" y="293.1" width="12.7" height="12.7"/>
	</g>
	<g>
		<rect id="p_363_" x="318.5" y="293.1" width="12.7" height="12.7"/>
	</g>
	<g>
		<rect id="p_364_" y="305.8" width="12.7" height="12.7"/>
	</g>
	<g>
		<rect id="p_365_" x="25.5" y="305.8" width="12.7" height="12.7"/>
	</g>
	<g>
		<rect id="p_366_" x="38.2" y="305.8" width="12.7" height="12.7"/>
	</g>
	<g>
		<rect id="p_367_" x="51" y="305.8" width="12.7" height="12.7"/>
	</g>
	<g>
		<rect id="p_368_" x="76.4" y="305.8" width="12.7" height="12.7"/>
	</g>
	<g>
		<rect id="p_369_" x="101.9" y="305.8" width="12.7" height="12.7"/>
	</g>
	<g>
		<rect id="p_370_" x="152.9" y="305.8" width="12.7" height="12.7"/>
	</g>
	<g>
		<rect id="p_371_" x="178.4" y="305.8" width="12.7" height="12.7"/>
	</g>
	<g>
		<rect id="p_372_" x="191.1" y="305.8" width="12.7" height="12.7"/>
	</g>
	<g>
		<rect id="p_373_" x="203.9" y="305.8" width="12.7" height="12.7"/>
	</g>
	<g>
		<rect id="p_374_" x="229.3" y="305.8" width="12.7" height="12.7"/>
	</g>
	<g>
		<rect id="p_375_" x="242.1" y="305.8" width="12.7" height="12.7"/>
	</g>
	<g>
		<rect id="p_376_" x="254.8" y="305.8" width="12.7" height="12.7"/>
	</g>
	<g>
		<rect id="p_377_" x="267.6" y="305.8" width="12.7" height="12.7"/>
	</g>
	<g>
		<rect id="p_378_" x="280.3" y="305.8" width="12.7" height="12.7"/>
	</g>
	<g>
		<rect id="p_379_" x="293.1" y="305.8" width="12.7" height="12.7"/>
	</g>
	<g>
		<rect id="p_380_" x="305.8" y="305.8" width="12.7" height="12.7"/>
	</g>
	<g>
		<rect id="p_381_" y="318.5" width="12.7" height="12.7"/>
	</g>
	<g>
		<rect id="p_382_" x="25.5" y="318.5" width="12.7" height="12.7"/>
	</g>
	<g>
		<rect id="p_383_" x="38.2" y="318.5" width="12.7" height="12.7"/>
	</g>
	<g>
		<rect id="p_384_" x="51" y="318.5" width="12.7" height="12.7"/>
	</g>
	<g>
		<rect id="p_385_" x="76.4" y="318.5" width="12.7" height="12.7"/>
	</g>
	<g>
		<rect id="p_386_" x="101.9" y="318.5" width="12.7" height="12.7"/>
	</g>
	<g>
		<rect id="p_387_" x="140.2" y="318.5" width="12.7" height="12.7"/>
	</g>
	<g>
		<rect id="p_388_" x="165.6" y="318.5" width="12.7" height="12.7"/>
	</g>
	<g>
		<rect id="p_389_" x="178.4" y="318.5" width="12.7" height="12.7"/>
	</g>
	<g>
		<rect id="p_390_" x="216.6" y="318.5" width="12.7" height="12.7"/>
	</g>
	<g>
		<rect id="p_391_" x="229.3" y="318.5" width="12.7" height="12.7"/>
	</g>
	<g>
		<rect id="p_392_" x="293.1" y="318.5" width="12.7" height="12.7"/>
	</g>
	<g>
		<rect id="p_393_" x="318.5" y="318.5" width="12.7" height="12.7"/>
	</g>
	<g>
		<rect id="p_394_" x="331.3" y="318.5" width="12.7" height="12.7"/>
	</g>
	<g>
		<rect id="p_395_" x="344" y="318.5" width="12.7" height="12.7"/>
	</g>
	<g>
		<rect id="p_396_" y="331.3" width="12.7" height="12.7"/>
	</g>
	<g>
		<rect id="p_397_" x="25.5" y="331.3" width="12.7" height="12.7"/>
	</g>
	<g>
		<rect id="p_398_" x="38.2" y="331.3" width="12.7" height="12.7"/>
	</g>
	<g>
		<rect id="p_399_" x="51" y="331.3" width="12.7" height="12.7"/>
	</g>
	<g>
		<rect id="p_400_" x="76.4" y="331.3" width="12.7" height="12.7"/>
	</g>
	<g>
		<rect id="p_401_" x="114.7" y="331.3" width="12.7" height="12.7"/>
	</g>
	<g>
		<rect id="p_402_" x="127.4" y="331.3" width="12.7" height="12.7"/>
	</g>
	<g>
		<rect id="p_403_" x="152.9" y="331.3" width="12.7" height="12.7"/>
	</g>
	<g>
		<rect id="p_404_" x="178.4" y="331.3" width="12.7" height="12.7"/>
	</g>
	<g>
		<rect id="p_405_" x="191.1" y="331.3" width="12.7" height="12.7"/>
	</g>
	<g>
		<rect id="p_406_" x="216.6" y="331.3" width="12.7" height="12.7"/>
	</g>
	<g>
		<rect id="p_407_" x="229.3" y="331.3" width="12.7" height="12.7"/>
	</g>
	<g>
		<rect id="p_408_" x="254.8" y="331.3" width="12.7" height="12.7"/>
	</g>
	<g>
		<rect id="p_409_" x="267.6" y="331.3" width="12.7" height="12.7"/>
	</g>
	<g>
		<rect id="p_410_" x="293.1" y="331.3" width="12.7" height="12.7"/>
	</g>
	<g>
		<rect id="p_411_" x="305.8" y="331.3" width="12.7" height="12.7"/>
	</g>
	<g>
		<rect id="p_412_" x="318.5" y="331.3" width="12.7" height="12.7"/>
	</g>
	<g>
		<rect id="p_413_" x="344" y="331.3" width="12.7" height="12.7"/>
	</g>
	<g>
		<rect id="p_414_" x="356.8" y="331.3" width="12.7" height="12.7"/>
	</g>
	<g>
		<rect id="p_415_" y="344" width="12.7" height="12.7"/>
	</g>
	<g>
		<rect id="p_416_" x="76.4" y="344" width="12.7" height="12.7"/>
	</g>
	<g>
		<rect id="p_417_" x="101.9" y="344" width="12.7" height="12.7"/>
	</g>
	<g>
		<rect id="p_418_" x="114.7" y="344" width="12.7" height="12.7"/>
	</g>
	<g>
		<rect id="p_419_" x="127.4" y="344" width="12.7" height="12.7"/>
	</g>
	<g>
		<rect id="p_420_" x="140.2" y="344" width="12.7" height="12.7"/>
	</g>
	<g>
		<rect id="p_421_" x="191.1" y="344" width="12.7" height="12.7"/>
	</g>
	<g>
		<rect id="p_422_" x="305.8" y="344" width="12.7" height="12.7"/>
	</g>
	<g>
		<rect id="p_423_" x="318.5" y="344" width="12.7" height="12.7"/>
	</g>
	<g>
		<rect id="p_424_" x="331.3" y="344" width="12.7" height="12.7"/>
	</g>
	<g>
		<rect id="p_425_" x="356.8" y="344" width="12.7" height="12.7"/>
	</g>
	<g>
		<rect id="p_426_" y="356.8" width="12.7" height="12.7"/>
	</g>
	<g>
		<rect id="p_427_" x="12.7" y="356.8" width="12.7" height="12.7"/>
	</g>
	<g>
		<rect id="p_428_" x="25.5" y="356.8" width="12.7" height="12.7"/>
	</g>
	<g>
		<rect id="p_429_" x="38.2" y="356.8" width="12.7" height="12.7"/>
	</g>
	<g>
		<rect id="p_430_" x="51" y="356.8" width="12.7" height="12.7"/>
	</g>
	<g>
		<rect id="p_431_" x="63.7" y="356.8" width="12.7" height="12.7"/>
	</g>
	<g>
		<rect id="p_432_" x="76.4" y="356.8" width="12.7" height="12.7"/>
	</g>
	<g>
		<rect id="p_433_" x="127.4" y="356.8" width="12.7" height="12.7"/>
	</g>
	<g>
		<rect id="p_434_" x="152.9" y="356.8" width="12.7" height="12.7"/>
	</g>
	<g>
		<rect id="p_435_" x="178.4" y="356.8" width="12.7" height="12.7"/>
	</g>
	<g>
		<rect id="p_436_" x="242.1" y="356.8" width="12.7" height="12.7"/>
	</g>
	<g>
		<rect id="p_437_" x="254.8" y="356.8" width="12.7" height="12.7"/>
	</g>
	<g>
		<rect id="p_438_" x="293.1" y="356.8" width="12.7" height="12.7"/>
	</g>
	<g>
		<rect id="p_439_" x="305.8" y="356.8" width="12.7" height="12.7"/>
	</g>
</g>
</svg>
