<?xml version="1.0" encoding="utf-8"?>
<!-- Generator: Adobe Illustrator 24.1.2, SVG Export Plug-In . SVG Version: 6.00 Build 0)  -->
<svg version="1.1" id="レイヤー_1" xmlns="http://www.w3.org/2000/svg" xmlns:xlink="http://www.w3.org/1999/xlink" x="0px"
	 y="0px" viewBox="0 0 256 256" style="enable-background:new 0 0 256 256;" xml:space="preserve">
<style type="text/css">
	.st0{fill:#4D4D4D;}
	.st1{fill:#FFFFFF;}
</style>
<g>
	<path class="st0" d="M127.8,91.3c-64.6,0-67.6,41.1-67.6,41.1v123.4h136.6V132.4C196.8,132.4,193.9,91.3,127.8,91.3z"/>
	<path class="st1" d="M79.3,61.9c0-27.9,22-49.9,49.9-49.9s49.9,22,49.9,49.9s-22,49.9-49.9,49.9S79.3,88.3,79.3,61.9z"/>
	<path class="st0" d="M79.3,50.2c0-27.9,22-49.9,49.9-49.9s49.9,22,49.9,49.9s-22,49.9-49.9,49.9C101.3,100.1,79.3,76.6,79.3,50.2z"
		/>
</g>
</svg>
